HIERARCHY
ROOT SimulationBone
{
	OFFSET 0.000000 0.000000 0.000000
	CHANNELS 6 Xposition Yposition Zposition Zrotation Yrotation Xrotation 
	JOINT Hips
	{
		OFFSET 0.000000 0.000000 0.000000
		CHANNELS 6 Xposition Yposition Zposition Zrotation Yrotation Xrotation 
		JOINT LeftUpLeg
		{
			OFFSET 0.103459 1.857839 10.548500
			CHANNELS 3 Zrotation Yrotation Xrotation
			JOINT LeftLeg
			{
				OFFSET 43.500004 -0.000053 -0.000011
				CHANNELS 3 Zrotation Yrotation Xrotation
				JOINT LeftFoot
				{
					OFFSET 42.372192 0.000015 -0.000008
					CHANNELS 3 Zrotation Yrotation Xrotation
					JOINT LeftToe
					{
						OFFSET 17.300007 0.000002 0.000013
						CHANNELS 3 Zrotation Yrotation Xrotation
						End Site
						{
							OFFSET 0.000000 0.000000 0.000000
						}
					}
				}
			}
		}
		JOINT RightUpLeg
		{
			OFFSET 0.103460 1.857826 -10.548500
			CHANNELS 3 Zrotation Yrotation Xrotation
			JOINT RightLeg
			{
				OFFSET 43.500046 -0.000019 0.000011
				CHANNELS 3 Zrotation Yrotation Xrotation
				JOINT RightFoot
				{
					OFFSET 42.372261 0.000004 0.000012
					CHANNELS 3 Zrotation Yrotation Xrotation
					JOINT RightToe
					{
						OFFSET 17.299995 -0.000004 0.000006
						CHANNELS 3 Zrotation Yrotation Xrotation
						End Site
						{
							OFFSET 0.000000 0.000000 0.000000
						}
					}
				}
			}
		}
		JOINT Spine
		{
			OFFSET 6.901963 -2.603745 -0.000005
			CHANNELS 3 Zrotation Yrotation Xrotation
			JOINT Spine1
			{
				OFFSET 12.588102 0.000012 0.000012
				CHANNELS 3 Zrotation Yrotation Xrotation
				JOINT Spine2
				{
					OFFSET 12.343202 0.000010 -0.000009
					CHANNELS 3 Zrotation Yrotation Xrotation
					JOINT Neck
					{
						OFFSET 25.832901 -0.000008 0.000006
						CHANNELS 3 Zrotation Yrotation Xrotation
						JOINT Head
						{
							OFFSET 11.766603 0.000007 -0.000001
							CHANNELS 3 Zrotation Yrotation Xrotation
							End Site
							{
								OFFSET 0.000000 0.000000 0.000000
							}
						}
					}
					JOINT LeftShoulder
					{
						OFFSET 19.745903 -1.480391 6.000108
						CHANNELS 3 Zrotation Yrotation Xrotation
						JOINT LeftArm
						{
							OFFSET 11.284125 -0.000031 -0.000021
							CHANNELS 3 Zrotation Yrotation Xrotation
							JOINT LeftForeArm
							{
								OFFSET 33.000046 0.000024 0.000034
								CHANNELS 3 Zrotation Yrotation Xrotation
								JOINT LeftHand
								{
									OFFSET 25.200014 0.000020 0.000007
									CHANNELS 3 Zrotation Yrotation Xrotation
									End Site
									{
										OFFSET 0.000000 0.000000 0.000000
									}
								}
							}
						}
					}
					JOINT RightShoulder
					{
						OFFSET 19.746098 -1.480371 -6.000075
						CHANNELS 3 Zrotation Yrotation Xrotation
						JOINT RightArm
						{
							OFFSET 11.284128 -0.000021 -0.000009
							CHANNELS 3 Zrotation Yrotation Xrotation
							JOINT RightForeArm
							{
								OFFSET 33.000095 0.000034 0.000006
								CHANNELS 3 Zrotation Yrotation Xrotation
								JOINT RightHand
								{
									OFFSET 25.199781 0.000147 0.000427
									CHANNELS 3 Zrotation Yrotation Xrotation
									End Site
									{
										OFFSET 0.000000 0.000000 0.000000
									}
								}
							}
						}
					}
				}
			}
		}
	}
}
MOTION
Frames: 10
Frame Time: 0.016667
-166.924294 0.000000 507.057519 0.000000 149.221961 0.000000 -1.297470 90.029587 0.427117 89.733976 1.140087 179.695986 147.094598 -5.132293 171.206068 -63.614400 4.046475 -5.123063 74.963306 0.450708 -10.597149 21.454560 0.003110 0.000017 170.501862 -4.400403 -174.444739 -27.377822 -0.201526 2.042140 87.386703 -2.120152 -4.051214 21.454550 -0.003095 -0.000000 6.555360 0.204735 0.519970 3.099678 0.395770 1.045152 2.781627 0.401939 1.042744 11.178341 -5.939403 -8.522548 -11.892427 8.450640 -12.209719 -177.801995 -76.564749 -3.670051 27.227153 58.380849 48.508063 -39.664543 -14.816427 1.464897 10.586262 5.686881 6.508325 -145.675077 80.336487 36.375941 -13.077986 -60.040837 -36.352496 -43.521934 16.608363 -1.659534 10.780571 4.961805 0.192087 
-168.796527 0.000000 506.135977 0.000000 148.536288 0.000000 -1.291005 89.816986 0.479446 89.489861 1.395112 179.350773 146.330196 -5.170587 171.141930 -58.582505 4.185872 -4.285394 75.386411 -0.034573 -10.346149 21.454562 0.003112 0.000018 171.687862 -4.620696 -174.776604 -27.302421 -0.268589 1.676655 88.578848 -1.809461 -3.951498 21.454551 -0.003092 -0.000000 6.474295 0.227256 0.674708 2.938344 0.437689 1.354875 2.620336 0.445726 1.352209 11.101597 -6.109268 -8.406415 -11.717617 8.709696 -12.176265 -176.645808 -76.394021 -4.849658 28.672326 57.854384 49.974724 -39.623007 -14.548965 1.446743 10.902495 6.318275 6.665693 -146.150984 80.519729 35.886286 -14.811053 -59.241087 -33.454706 -45.735065 17.514440 -1.784224 10.299480 6.165862 0.626259 
-170.673063 0.000000 505.206728 0.000000 147.841475 0.000000 -1.283498 89.590561 0.521141 89.247749 1.554650 179.019699 145.989733 -5.145097 171.188556 -52.730282 4.222638 -3.431485 75.596806 -0.428435 -9.774967 21.454562 0.003113 0.000019 172.887756 -4.658496 -175.031643 -27.223866 -0.312488 1.244117 89.797985 -1.460945 -3.874216 21.454553 -0.003088 0.000000 6.399437 0.241156 0.818275 2.789374 0.462973 1.642022 2.471412 0.472742 1.639196 10.951941 -6.364983 -8.282650 -11.498161 8.950394 -12.137195 -175.292953 -76.226969 -6.230969 29.867422 57.420387 51.147023 -39.469921 -14.198662 1.419538 11.037356 6.548753 7.109109 -146.808915 80.711191 35.212056 -16.288286 -58.435586 -30.497524 -48.059365 18.301767 -1.908105 9.734875 7.102553 0.458095 
-172.551427 0.000000 504.266806 0.000000 147.142106 0.000000 -1.258297 89.387399 0.546446 89.125022 1.581774 178.704523 146.244310 -5.148677 171.613396 -45.918656 3.833543 -2.665683 75.188178 -0.909140 -9.576653 21.454561 0.003113 0.000019 174.306554 -4.495737 -175.393489 -26.965934 -0.293983 0.837357 90.955931 -1.135775 -3.793256 21.454552 -0.003088 0.000001 6.368105 0.248938 0.950843 2.727372 0.475912 1.907173 2.409443 0.487284 1.904267 10.649875 -6.774778 -8.163052 -11.321470 9.111737 -12.107146 -173.566521 -76.006038 -7.993889 30.684202 57.162059 52.089206 -39.082410 -13.867458 1.387311 10.726903 6.228928 7.432715 -146.947644 80.983067 35.061959 -17.714359 -57.710752 -27.448491 -50.366869 18.962406 -2.026044 9.149206 7.840002 -0.224444 
-174.426366 0.000000 503.316824 0.000000 146.441708 0.000000 -1.235873 89.190147 0.556789 89.034055 1.554680 178.347876 147.003879 -5.158800 172.043231 -38.287202 3.477032 -1.925628 74.806942 -1.608039 -10.041250 21.454560 0.003112 0.000019 175.823003 -4.252201 -176.048413 -26.543251 -0.202127 0.567897 92.028991 -0.905526 -3.683912 21.454551 -0.003090 0.000001 6.354811 0.255833 1.088709 2.701474 0.486762 2.182972 2.383588 0.499801 2.179999 10.282538 -7.218492 -8.031300 -11.233676 9.251567 -12.076310 -171.932963 -75.800260 -9.662984 31.387252 57.101312 52.937509 -38.544351 -13.654569 1.360364 10.282857 5.720056 7.439524 -146.925097 81.270659 35.074961 -19.018987 -56.991878 -24.445791 -52.620494 19.437655 -2.134760 8.413128 8.538268 -1.116431 
-176.291795 0.000000 502.360884 0.000000 145.743346 0.000000 -1.233960 88.974441 0.560453 88.878823 1.558782 177.920573 148.103844 -5.120261 172.226946 -30.134166 3.554951 -1.114196 75.097834 -2.485502 -11.127495 21.454558 0.003109 0.000018 177.287554 -4.035583 -177.056288 -26.017462 -0.052368 0.486796 93.009835 -0.802534 -3.535204 21.454550 -0.003094 0.000000 6.329245 0.267140 1.240705 2.651199 0.506450 2.487084 2.333390 0.521323 2.483987 9.957085 -7.556479 -7.873310 -11.248015 9.428910 -12.028005 -170.797482 -75.700639 -10.824283 32.241091 57.230907 53.774408 -37.964224 -13.612904 1.343776 10.079742 5.438213 7.078478 -147.231533 81.496257 34.756856 -20.100377 -56.212455 -21.639346 -54.794242 19.682171 -2.228356 7.425687 9.326647 -1.896127 
-178.141354 0.000000 501.399366 0.000000 145.050714 0.000000 -1.230708 88.742310 0.569586 88.730339 1.588594 177.566165 149.342399 -5.008302 173.041722 -22.286470 3.639137 -0.722210 75.593814 -2.877804 -11.808261 21.454558 0.003108 0.000017 178.760339 -3.793600 -177.941249 -25.449980 0.073862 0.382472 93.892943 -0.689180 -3.381991 21.454550 -0.003096 -0.000001 6.304526 0.284994 1.369717 2.602724 0.539849 2.745377 2.284996 0.556277 2.742072 9.691804 -7.758717 -7.701037 -11.288194 9.588846 -11.943741 -169.937004 -75.707753 -11.704985 33.139510 57.513743 54.419373 -37.345547 -13.611820 1.327795 10.143671 5.530545 6.703277 -147.590904 81.671774 34.386980 -21.060083 -55.455707 -19.007271 -56.822853 19.755590 -2.305572 6.389870 10.118528 -2.363636 
-179.968375 0.000000 500.427457 0.000000 144.367621 0.000000 -1.200144 88.488455 0.586132 88.678587 1.633297 177.418722 150.497857 -4.871838 175.151316 -15.725850 3.412289 -1.302547 75.814033 -2.279865 -11.344228 21.454559 0.003110 0.000018 -179.697977 -3.473187 -178.240925 -24.957605 0.123769 0.037368 94.695101 -0.424884 -3.266617 21.454549 -0.003096 -0.000002 6.299686 0.310712 1.440972 2.594023 0.589823 2.888420 2.276340 0.607109 2.884809 9.483458 -7.824769 -7.530964 -11.274968 9.665946 -11.810641 -169.092462 -75.789060 -12.569377 33.910554 57.887719 54.701449 -36.700294 -13.523250 1.305888 10.390256 5.978865 6.686133 -147.681423 81.823455 34.290238 -22.004883 -54.806754 -16.499591 -58.664299 19.731983 -2.371677 5.533875 10.798469 -2.449039 
-181.766878 0.000000 499.443047 0.000000 143.697053 0.000000 -1.131285 88.151878 0.588928 88.723966 1.752310 177.401351 151.280370 -4.858204 177.231989 -11.442484 3.171733 -2.509235 76.438818 -1.319907 -11.225711 21.454560 0.003112 0.000018 -178.239018 -3.097201 -178.101048 -24.876568 0.207080 -0.520838 95.518398 -0.031126 -3.231985 21.454550 -0.003095 -0.000002 6.314086 0.346004 1.474973 2.623912 0.659268 2.957282 2.306246 0.676967 2.953250 9.331173 -7.762564 -7.373921 -11.206813 9.667136 -11.641925 -168.402930 -75.895390 -13.275046 34.518812 58.197076 54.777681 -36.175939 -13.413890 1.286799 10.648199 6.369919 7.048388 -147.921990 81.940597 34.042962 -22.813369 -54.241843 -14.162537 -60.401336 19.639285 -2.431592 4.852039 11.313443 -2.522788 
-183.534068 0.000000 498.449259 0.000000 143.041461 0.000000 -1.031279 87.699046 0.561947 88.848253 1.961052 177.424771 151.499329 -4.997248 177.826590 -10.102020 3.128804 -3.750917 77.829093 -0.691075 -12.728289 21.454558 0.003109 0.000015 -177.020300 -2.660691 -177.783731 -25.473348 0.429183 -1.190379 96.409666 0.423816 -3.295707 21.454553 -0.003096 -0.000001 6.343242 0.385062 1.495120 2.683351 0.736152 2.998639 2.365689 0.754101 2.994143 9.230612 -7.601061 -7.238018 -11.092611 9.624577 -11.460527 -168.073894 -75.963262 -13.612011 34.913634 58.285663 54.821341 -35.897300 -13.364745 1.277250 10.766681 6.329852 7.632694 -148.673192 82.023041 33.280303 -23.363122 -53.761654 -12.047601 -62.087516 19.501438 -2.487905 4.276213 11.640303 -2.955345 
